<svg width="40" height="41" viewBox="0 0 40 41" fill="none" xmlns="http://www.w3.org/2000/svg">
<path fill-rule="evenodd" clip-rule="evenodd" d="M20.0001 1.72635C9.87508 1.72635 1.66675 9.93468 1.66675 20.0597C1.66675 30.1847 9.87508 38.393 20.0001 38.393C30.1251 38.393 38.3334 30.1847 38.3334 20.0597C38.3334 9.93468 30.1251 1.72635 20.0001 1.72635ZM27.9467 16.9597C28.0931 16.7924 28.2045 16.5976 28.2744 16.3866C28.3443 16.1757 28.3713 15.9529 28.3539 15.7313C28.3364 15.5098 28.2748 15.294 28.1727 15.0966C28.0706 14.8992 27.9301 14.7242 27.7593 14.5819C27.5886 14.4396 27.3911 14.333 27.1786 14.2681C26.966 14.2033 26.7426 14.1816 26.5216 14.2044C26.3005 14.2272 26.0862 14.2939 25.8913 14.4007C25.6964 14.5075 25.5249 14.6523 25.3867 14.8263L18.2201 23.4247L14.5117 19.7147C14.1974 19.4111 13.7764 19.2431 13.3394 19.2469C12.9024 19.2507 12.4844 19.426 12.1754 19.735C11.8664 20.044 11.6911 20.462 11.6873 20.899C11.6835 21.336 11.8515 21.757 12.1551 22.0713L17.1551 27.0713C17.3188 27.235 17.5149 27.3628 17.7308 27.4464C17.9466 27.5301 18.1776 27.5679 18.4089 27.5574C18.6401 27.5469 18.8667 27.4883 19.0741 27.3854C19.2815 27.2825 19.4652 27.1375 19.6134 26.9597L27.9467 16.9597Z" fill="#545454"/>
</svg>
