<svg width="81" height="81" viewBox="0 0 81 81" fill="none" xmlns="http://www.w3.org/2000/svg">
<path d="M44.9504 41.4524C45.1257 41.2772 45.2244 41.0396 45.2246 40.7917V40.318C45.2217 40.0707 45.1235 39.834 44.9504 39.6573L38.5428 33.2623C38.4258 33.1443 38.2665 33.0779 38.1003 33.0779C37.9341 33.0779 37.7748 33.1443 37.6578 33.2623L36.7727 34.1473C36.6554 34.2622 36.5893 34.4195 36.5893 34.5836C36.5893 34.7478 36.6554 34.9051 36.7727 35.02L42.32 40.5549L36.7727 46.0898C36.6547 46.2068 36.5883 46.3661 36.5883 46.5323C36.5883 46.6985 36.6547 46.8578 36.7727 46.9748L37.6578 47.8475C37.7748 47.9655 37.9341 48.0318 38.1003 48.0318C38.2665 48.0318 38.4258 47.9655 38.5428 47.8475L44.9504 41.4524Z" fill="#BCBCBC"/>
<rect x="0.846924" y="1.16382" width="78.7823" height="78.7823" rx="5.5" stroke="#545454"/>
</svg>
