<svg width="80" height="81" viewBox="0 0 80 81" fill="none" xmlns="http://www.w3.org/2000/svg">
<path d="M35.1793 41.4524C35.0039 41.2772 34.9052 41.0396 34.905 40.7917V40.318C34.9079 40.0707 35.0061 39.834 35.1793 39.6573L41.5868 33.2623C41.7038 33.1443 41.8631 33.0779 42.0293 33.0779C42.1955 33.0779 42.3548 33.1443 42.4719 33.2623L43.357 34.1473C43.4742 34.2622 43.5403 34.4195 43.5403 34.5836C43.5403 34.7478 43.4742 34.9051 43.357 35.02L37.8096 40.5549L43.357 46.0898C43.475 46.2068 43.5413 46.3661 43.5413 46.5323C43.5413 46.6985 43.475 46.8578 43.357 46.9748L42.4719 47.8475C42.3548 47.9655 42.1955 48.0318 42.0293 48.0318C41.8631 48.0318 41.7038 47.9655 41.5868 47.8475L35.1793 41.4524Z" fill="#BCBCBC"/>
<rect x="0.5" y="1.16382" width="78.7823" height="78.7823" rx="5.5" stroke="#545454"/>
</svg>
