<svg width="27" height="28" viewBox="0 0 27 28" fill="none" xmlns="http://www.w3.org/2000/svg">
<path d="M13.0435 25.4334C10.0168 25.4334 7.11404 24.2311 4.97384 22.0909C2.83364 19.9507 1.63129 17.0479 1.63129 14.0212C1.63129 10.9946 2.83364 8.09182 4.97384 5.95162C7.11404 3.81142 10.0168 2.60907 13.0435 2.60907C16.0702 2.60907 18.9729 3.81142 21.1131 5.95162C23.2533 8.09182 24.4556 10.9946 24.4556 14.0212C24.4556 17.0479 23.2533 19.9507 21.1131 22.0909C18.9729 24.2311 16.0702 25.4334 13.0435 25.4334ZM13.0435 27.0637C16.5025 27.0637 19.82 25.6896 22.2659 23.2437C24.7118 20.7977 26.086 17.4803 26.086 14.0212C26.086 10.5622 24.7118 7.24476 22.2659 4.79882C19.82 2.35288 16.5025 0.97876 13.0435 0.97876C9.58438 0.97876 6.26697 2.35288 3.82103 4.79882C1.37509 7.24476 0.000976563 10.5622 0.000976562 14.0212C0.000976563 17.4803 1.37509 20.7977 3.82103 23.2437C6.26697 25.6896 9.58438 27.0637 13.0435 27.0637Z" fill="#8FC597"/>
<path d="M17.8854 9.08164C17.8738 9.0929 17.8629 9.10488 17.8528 9.11751L12.1907 16.3316L8.77847 12.9178C8.54668 12.7018 8.2401 12.5842 7.92333 12.5898C7.60656 12.5954 7.30432 12.7237 7.0803 12.9477C6.85627 13.1718 6.72795 13.474 6.72236 13.7908C6.71677 14.1075 6.83435 14.4141 7.05034 14.6459L11.3641 18.9613C11.4804 19.0773 11.6187 19.1687 11.771 19.2301C11.9233 19.2915 12.0864 19.3215 12.2506 19.3185C12.4148 19.3154 12.5767 19.2793 12.7266 19.2124C12.8765 19.1454 13.0114 19.049 13.1232 18.9287L19.6314 10.7935C19.8531 10.5609 19.9742 10.2504 19.9687 9.92919C19.9633 9.60797 19.8316 9.30182 19.6022 9.07691C19.3728 8.852 19.0641 8.72641 18.7428 8.7273C18.4216 8.72819 18.1135 8.85547 17.8854 9.08164Z" fill="#8FC597"/>
</svg>
